<svg width="32" height="32" viewBox="0 0 32 32" fill="none" xmlns="http://www.w3.org/2000/svg">
<path d="M0 4C0 1.79086 1.79086 0 4 0H28C30.2091 0 32 1.79086 32 4V28C32 30.2091 30.2091 32 28 32H4C1.79086 32 0 30.2091 0 28V4Z" fill="#333670"/>
<path d="M18.4062 15.1944C17.6457 21.9257 16.7278 26.5396 15.6025 27.8741C15.1851 28.3691 14.712 27.316 14.2953 26.2542C13.9465 25.3654 13.9192 23.0256 14.1476 20.7325C15.0284 11.8898 16.2114 7.01675 17.6273 5.28553C18.079 4.73317 18.5359 4.42694 18.9992 4C19.0169 8.67142 18.7527 11.9713 18.4062 15.1944Z" fill="white"/>
</svg>
